<?xml version="1.0" encoding="utf-8"?>
<!-- Generator: Adobe Illustrator 24.2.0, SVG Export Plug-In . SVG Version: 6.00 Build 0)  -->
<svg version="1.1" id="Layer_1" xmlns="http://www.w3.org/2000/svg" xmlns:xlink="http://www.w3.org/1999/xlink" x="0px" y="0px"
	 inkseekers_viewBox="0 0 408 177" style="enable-background:new 0 0 408 177;" xml:space="preserve">
<style type="text/css">
	.st0{fill:#FFFFFF;stroke:#231F20;stroke-width:2;}
	.st1{fill:none;stroke:#D1D3D4;}
	.st2{fill:#9B5C8F;}
	.st3{fill:#FFFFFF;}
	.st4{fill:#FFFFFF;stroke:#231F20;stroke-width:1.9738;}
	.st5{fill:#DE3434;}
	.st6{fill:#DE3535;}
	.st7{fill:#DF3A3A;}
</style>
<path class="st0" d="M300,121h107v8H300V121z M1,121h107v8H1V121z"/>
<path class="st1" d="M198.5,22V11.2c0-5.5-4.1-9.8-9.6-9.8h-124c-5.5,0-10.4,4.2-10.4,9.8V88 M209.5,22V11.2c0-5.5,4.9-9.8,10.4-9.8
	h124c5.5,0,9.6,4.2,9.6,9.8V88"/>
<path class="st0" d="M6,49h97v72H6V49z"/>
<g>
	<path class="st2" d="M28.1,71h44.8c2.8,0,5.1,2.3,5.1,5.2v17.2c0,2.9-2.3,5.2-5.1,5.2H56.8L59,104l-9.7-5.4H28.1
		c-2.8,0-5.1-2.3-5.1-5.2V76.2C23,73.3,25.3,71,28.1,71z"/>
	<path class="st3" d="M26.4,75.7c0.3-0.4,0.8-0.7,1.4-0.7c1.2-0.1,1.8,0.5,2,1.6c0.7,4.7,1.5,8.8,2.3,12.1l4.9-9.5
		c0.5-0.9,1-1.3,1.7-1.4c1-0.1,1.6,0.6,1.9,1.9c0.6,3,1.3,5.6,2.1,7.8c0.6-5.8,1.6-9.9,3-12.5c0.3-0.6,0.8-1,1.5-1
		c0.5,0,1,0.1,1.4,0.5c0.4,0.3,0.7,0.8,0.7,1.3c0,0.4,0,0.7-0.2,1.1c-0.9,1.6-1.6,4.4-2.2,8.2c-0.6,3.7-0.8,6.6-0.6,8.6
		c0,0.6,0,1.1-0.3,1.5c-0.3,0.5-0.7,0.8-1.2,0.8c-0.6,0-1.2-0.2-1.8-0.8c-2.1-2.2-3.8-5.4-5-9.7c-1.1,2.2-2.2,4.3-3.3,6.5
		c-1.3,2.6-2.5,3.9-3.4,3.9c-0.6,0-1.1-0.5-1.6-1.6c-1.2-3-2.4-8.7-3.7-17.2C25.9,76.6,26.1,76.1,26.4,75.7L26.4,75.7z M74.9,79.2
		c-0.8-1.4-2-2.3-3.6-2.6c-0.4-0.1-0.8-0.1-1.2-0.1c-2.2,0-3.9,1.1-5.3,3.4c-1.2,1.9-1.8,4.1-1.8,6.4c0,1.7,0.4,3.2,1.1,4.5
		c0.8,1.4,2,2.3,3.6,2.6c0.4,0.1,0.8,0.1,1.2,0.1c2.2,0,3.9-1.1,5.3-3.4c1.2-2,1.8-4.1,1.8-6.4C76,81.9,75.6,80.5,74.9,79.2z
		 M72.1,85.5c-0.3,1.5-0.9,2.6-1.7,3.4c-0.7,0.6-1.3,0.8-1.8,0.7c-0.5-0.1-1-0.6-1.3-1.5c-0.3-0.7-0.4-1.4-0.4-2.1
		c0-0.6,0-1.1,0.2-1.7c0.2-1,0.6-1.9,1.2-2.7c0.7-1.1,1.5-1.6,2.3-1.4c0.5,0.1,1,0.6,1.3,1.5c0.3,0.7,0.4,1.4,0.4,2.1
		C72.2,84.4,72.2,85,72.1,85.5z M60.8,79.2c-0.8-1.4-2-2.3-3.6-2.6c-0.4-0.1-0.8-0.1-1.2-0.1c-2.2,0-3.9,1.1-5.3,3.4
		c-1.2,1.9-1.8,4.1-1.8,6.4c0,1.7,0.4,3.2,1.1,4.5c0.8,1.4,2,2.3,3.6,2.6c0.4,0.1,0.8,0.1,1.2,0.1c2.2,0,4-1.1,5.3-3.4
		c1.2-2,1.8-4.1,1.8-6.4C61.9,81.9,61.5,80.5,60.8,79.2L60.8,79.2z M57.9,85.5c-0.3,1.5-0.9,2.6-1.7,3.4c-0.7,0.6-1.3,0.8-1.8,0.7
		c-0.5-0.1-1-0.6-1.3-1.5c-0.3-0.7-0.4-1.4-0.4-2.1c0-0.6,0-1.1,0.2-1.7c0.2-1,0.6-1.9,1.2-2.7c0.7-1.1,1.5-1.6,2.3-1.4
		c0.5,0.1,1,0.6,1.3,1.5c0.3,0.7,0.4,1.4,0.4,2.1C58.1,84.4,58,85,57.9,85.5z"/>
</g>
<path class="st0" d="M305,49h97v72h-97V49z"/>
<g>
	<path class="st4" d="M229.6,114.8c0,4.2,3.4,7.6,7.6,7.6c4.2,0,7.6-3.4,7.6-7.6s-3.4-7.6-7.6-7.6
		C233,107.1,229.6,110.5,229.6,114.8z M232.8,114.8c0-2.4,2-4.4,4.4-4.4c2.4,0,4.4,2,4.4,4.4c0,2.4-2,4.4-4.4,4.4
		C234.8,119.2,232.8,117.2,232.8,114.8z"/>
	<path class="st4" d="M215,122.4c4.2,0,7.6-3.4,7.6-7.6c0-4.2-3.4-7.6-7.6-7.6c-4.2,0-7.6,3.4-7.6,7.6
		C207.3,119,210.7,122.4,215,122.4z M215,119.2c-2.4,0-4.4-2-4.4-4.4c0-2.4,2-4.4,4.4-4.4c2.4,0,4.4,2,4.4,4.4
		S217.4,119.2,215,119.2z"/>
	<path class="st4" d="M192.7,122.4c4.2,0,7.6-3.4,7.6-7.6c0-4.2-3.4-7.6-7.6-7.6s-7.6,3.4-7.6,7.6
		C185.1,119,188.5,122.4,192.7,122.4z M192.7,119.2c-2.4,0-4.4-2-4.4-4.4c0-2.4,2-4.4,4.4-4.4c2.4,0,4.4,2,4.4,4.4
		S195.2,119.2,192.7,119.2z"/>
	<path class="st4" d="M170.5,122.4c4.2,0,7.6-3.4,7.6-7.6c0-4.2-3.4-7.6-7.6-7.6c-4.2,0-7.6,3.4-7.6,7.6
		C162.8,119,166.3,122.4,170.5,122.4z M170.5,119.2c-2.4,0-4.4-2-4.4-4.4c0-2.4,2-4.4,4.4-4.4s4.4,2,4.4,4.4
		S172.9,119.2,170.5,119.2z"/>
	<path class="st4" d="M165.8,98c-9.2,0-16.7,7.5-16.7,16.7s7.5,16.7,16.7,16.7h61.2c0.9,0,1.6-0.7,1.6-1.6c0-0.9-0.7-1.6-1.6-1.6
		h-61.2c-7.5,0-13.5-6.1-13.5-13.5c0-7.5,6.1-13.5,13.5-13.5h76c7.5,0,13.5,6.1,13.5,13.5c0,7.5-6.1,13.5-13.5,13.5h-7.3
		c-0.9,0-1.6,0.7-1.6,1.6c0,0.9,0.7,1.6,1.6,1.6h7.3c9.2,0,16.7-7.5,16.7-16.7S251.1,98,241.8,98h-10.3V54c0-1.8-1.5-3.3-3.3-3.3
		H211v-3.5c0-1.9-1.6-3.5-3.5-3.5h-4c-0.1,0-0.2-0.1-0.3-0.2c-0.3-0.7-0.6-1.5-0.9-2.2c-0.1-0.1,0-0.2,0.1-0.3l2.8-2.8
		c1.4-1.4,1.4-3.6,0-5l-5.5-5.5c-1.4-1.4-3.6-1.4-5,0l-2.8,2.8c-0.1,0.1-0.2,0.1-0.3,0.1c-0.7-0.3-1.4-0.6-2.2-0.9
		c-0.1,0-0.2-0.2-0.2-0.3v-4c0-1.9-1.6-3.5-3.5-3.5h-7.7c-1.9,0-3.5,1.6-3.5,3.5v4c0,0.1-0.1,0.2-0.2,0.3c-0.7,0.3-1.5,0.6-2.2,0.9
		c-0.1,0.1-0.2,0-0.3-0.1l-2.8-2.8c-1.4-1.4-3.6-1.4-5,0l-5.5,5.5c-1.4,1.4-1.4,3.6,0,5l2.8,2.8c0.1,0.1,0.1,0.2,0.1,0.3
		c-0.3,0.7-0.6,1.4-0.9,2.2c0,0.1-0.2,0.2-0.3,0.2h-4c-1.9,0-3.5,1.6-3.5,3.5V55c0,1.9,1.6,3.5,3.5,3.5h4c0.1,0,0.2,0.1,0.3,0.2
		c0.3,0.7,0.6,1.5,0.9,2.2c0.1,0.1,0,0.2-0.1,0.3l-2.8,2.8c-1.4,1.4-1.4,3.6,0,5l5.5,5.5c1.4,1.4,3.6,1.4,5,0l2.8-2.8
		c0.1-0.1,0.2-0.1,0.3-0.1c0.7,0.3,1.4,0.6,2.2,0.9c0.1,0,0.2,0.2,0.2,0.3v4c0,1.9,1.6,3.5,3.5,3.5h3v4.1c0,0.9,0.7,1.6,1.6,1.6
		s1.6-0.7,1.6-1.6V54c0,0,0-0.1,0.1-0.1H199v11c0,0.9,0.5,1.7,1.2,2.2c0.8,0.5,1.7,0.5,2.5,0.1l3.5-1.8l3.5,1.8
		c0.4,0.2,0.8,0.3,1.2,0.3c0.5,0,0.9-0.1,1.4-0.4c0.8-0.5,1.2-1.3,1.2-2.2v-11h14.7c0,0,0.1,0,0.1,0.1v44h-44.1v-6.4
		c0-0.9-0.7-1.6-1.6-1.6s-1.6,0.7-1.6,1.6V98H165.8L165.8,98z M184.3,50.7c-1.8,0-3.3,1.5-3.3,3.3v9c-6.1-0.5-11-5.6-11-11.8
		c0-6.5,5.3-11.9,11.9-11.9c6.4,0,11.6,5.1,11.9,11.5H184.3L184.3,50.7z M207.8,47.3v3.5H197c-0.2-8.1-6.9-14.7-15.1-14.7
		c-8.3,0-15.1,6.8-15.1,15.1c0,8,6.3,14.6,14.2,15.1V77h-3c-0.2,0-0.3-0.1-0.3-0.3v-4c0-1.5-0.9-2.8-2.3-3.3
		c-0.6-0.2-1.3-0.5-1.9-0.8c-1.3-0.6-2.9-0.4-4,0.7l-2.8,2.8c-0.1,0.1-0.3,0.1-0.4,0l-5.5-5.5c-0.1-0.1-0.1-0.3,0-0.4l2.8-2.8
		c1-1,1.3-2.6,0.7-4c-0.3-0.6-0.6-1.2-0.8-1.9c-0.5-1.4-1.8-2.3-3.3-2.3h-4c-0.2,0-0.3-0.1-0.3-0.3v-7.7c0-0.2,0.1-0.3,0.3-0.3h4
		c1.5,0,2.8-0.9,3.3-2.3c0.2-0.6,0.5-1.3,0.8-1.9c0.6-1.3,0.4-2.9-0.7-4l-2.8-2.8c-0.1-0.1-0.1-0.3,0-0.4l5.5-5.5
		c0.1-0.1,0.3-0.1,0.4,0l2.8,2.8c1,1,2.6,1.3,4,0.7c0.6-0.3,1.2-0.6,1.9-0.8c1.4-0.5,2.3-1.8,2.3-3.3v-4c0-0.2,0.1-0.3,0.3-0.3h7.7
		c0.2,0,0.3,0.1,0.3,0.3v4c0,1.5,0.9,2.8,2.3,3.3c0.6,0.2,1.3,0.5,1.9,0.8c1.3,0.6,2.9,0.4,4-0.7l2.8-2.8c0.1-0.1,0.3-0.1,0.4,0
		l5.5,5.5c0.1,0.1,0.1,0.3,0,0.4l-2.8,2.8c-1,1-1.3,2.6-0.7,4c0.3,0.6,0.6,1.2,0.8,1.9c0.5,1.4,1.8,2.3,3.3,2.3h4
		C207.6,47,207.8,47.1,207.8,47.3L207.8,47.3z M210.3,63.9l-2.9-1.5c-0.7-0.4-1.6-0.4-2.4,0l-2.9,1.5v-10h8.1V63.9z"/>
	<path class="st4" d="M198.3,81.3c-1.4,0-2.6,1.1-2.6,2.6v6.8c0,1.4,1.1,2.6,2.6,2.6h15.9c1.4,0,2.6-1.1,2.6-2.6v-6.8
		c0-1.4-1.1-2.6-2.6-2.6H198.3z M199,84.5h14.6v5.6H199V84.5z"/>
</g>
<g>
	<path class="st5" d="M351.2,78c1.7,1.6,3.5,3.3,5.2,4.9c-0.1,0.1-0.2,0.2-0.2,0.3c-1.2,0-2.5,0-3.7,0c-0.6,0-0.9,0.1-0.9,0.8
		c0,2.6,0,5.1,0,7.7c0,0.6,0.2,0.9,0.8,0.8c1.3,0,2.5,0,3.8,0c0.1,0.3-0.1,0.3-0.2,0.4c-1.5,1.5-2.9,2.9-4.4,4.4
		c-0.4,0.4-0.6,0.4-0.9,0c-1.4-1.4-2.8-2.8-4.2-4.2c-0.2-0.2-0.4-0.3-0.4-0.6c1.2,0,2.4,0,3.7,0c0.7,0,1-0.1,0.9-0.9
		c-0.1-1.7,0.2-1.4-1.5-1.5c-0.8,0-1.7,0-2.5,0c-0.4,0-0.7-0.1-0.7-0.6c0-0.5,0.3-0.5,0.7-0.5c0.9,0,1.8,0,2.7,0
		c0.5,0,0.7-0.2,0.7-0.6c0-2.1,0.2-1.7-1.7-1.7c-0.6,0-1.2,0-1.8,0c-0.4,0-0.6-0.2-0.6-0.6c0-0.5,0.2-0.6,0.6-0.6c1.1,0,2.1,0,3.2,0
		c0.6,0,0.8-0.1,0.8-0.7c-0.1-1.9,0.2-1.6-1.6-1.6c-1,0-2,0-3.2,0c1.8-1.8,3.4-3.5,5.1-5.2C351.1,78,351.1,78,351.2,78z"/>
	<path class="st5" d="M311.8,83.3c2.6-0.3,2.6-0.3,2.6,2.2c0,2.1,0,4.2,0,6.3c0,0.6-0.2,0.8-0.8,0.8c-0.6,0-1.2,0.1-1.8-0.1
		C311.8,89.5,311.8,86.4,311.8,83.3z"/>
	<path class="st5" d="M321.5,88.1c0-1.3,0-2.6,0-3.9c0-0.8,0.2-1.1,1-1c1.9,0.1,1.5-0.1,1.5,1.5c0,2.4,0,4.7,0,7.1
		c0,0.7-0.2,0.8-0.9,0.9c-1.1,0.1-1.9-0.2-2.5-1.3c-0.8-1.3-1.8-2.5-2.7-3.8c-0.3,0.2-0.2,0.4-0.2,0.6c0,0.9,0,1.8,0,2.6
		c0,1.8-0.2,2-2.1,1.7c-0.4-0.1-0.5-0.2-0.5-0.5c0-2.8,0-5.5,0-8.3c0-0.2,0-0.4,0.2-0.5c0.6-0.3,2.4,0,2.8,0.6c1,1.4,2,2.9,3.1,4.3
		C321.3,88.2,321.4,88.2,321.5,88.1z"/>
	<path class="st5" d="M370.8,87.9c0-1.3,0-2.6,0-3.8c0-0.5,0.1-0.8,0.7-0.8c1.9,0,3.8,0,5.8,0c0.6,0,0.7,0.2,0.7,0.8
		c-0.1,1.9,0.2,1.6-1.6,1.6c-0.7,0-1.4,0-2.1,0c-0.4,0-0.9-0.1-0.9,0.6c0,0.7,0.5,0.6,0.9,0.6c0.9,0,1.7,0,2.6,0
		c0.5,0,0.6,0.2,0.7,0.6c0.1,1.8,0.1,1.8-1.7,1.8c-0.6,0-1.1,0-1.7,0c-0.4,0-0.7,0-0.7,0.6c0,0.5,0.3,0.5,0.7,0.5c1,0,2.1,0,3.1,0
		c0.6,0,0.9,0.1,0.8,0.8c-0.1,1.8,0.3,1.6-1.6,1.6c-1.6,0-3.2,0-4.8,0c-0.6,0-0.8-0.2-0.8-0.8C370.8,90.5,370.8,89.2,370.8,87.9z"/>
	<path class="st5" d="M327.4,89.7c0,0.8,0,1.6,0,2.3c0,0.5-0.2,0.6-0.6,0.6c-0.4,0-0.9,0-1.3,0c-0.5,0-0.7-0.1-0.7-0.6
		c0-2.7,0-5.4,0-8.1c0-0.5,0.2-0.6,0.6-0.7c1.9-0.1,1.9-0.2,1.9,1.8c0,0.5,0,1,0,1.5c0.1,0,0.1,0,0.2,0.1c0.6-0.8,1.3-1.6,1.8-2.4
		c0.4-0.7,1-1,1.8-0.9c0.6,0.1,1.5-0.3,1.8,0.2c0.2,0.5-0.6,1-1,1.5c-0.6,0.8-1.2,1.6-1.9,2.3c-0.6,0.6-0.5,1.1,0.1,1.6
		c1,1,2,2.1,2.9,3.1c0.1,0.2,0.4,0.3,0.3,0.6c-0.1,0.2-0.4,0.1-0.6,0.1c0,0-0.1,0-0.1,0c-1.7,0.3-3-0.2-3.9-1.7
		c-0.3-0.5-0.8-0.9-1.2-1.3C327.6,89.7,327.5,89.7,327.4,89.7z"/>
	<path class="st5" d="M364.1,86.5c0.6-0.8,1.2-1.6,1.8-2.4c0.4-0.7,1-1,1.8-0.9c0.6,0.1,1.5-0.3,1.8,0.2c0.2,0.5-0.6,1-1,1.5
		c-0.6,0.8-1.3,1.6-1.9,2.4c-0.5,0.5-0.5,0.9,0,1.4c1.1,1,2,2.2,3.1,3.2c0.1,0.1,0.4,0.3,0.3,0.5c-0.1,0.3-0.4,0.2-0.6,0.2
		c-1.6,0.2-3-0.1-4-1.6c-0.3-0.5-0.8-0.9-1.3-1.5c-0.2,0.9-0.1,1.6-0.1,2.4c0,0.6-0.2,0.8-0.7,0.7c-2.2,0-1.8,0.2-1.8-1.7
		c0-2.3,0-4.5,0-6.8c0-0.7,0.2-0.9,0.9-0.9c1.7,0,1.7,0,1.7,1.7c0,0.5,0,1.1,0,1.6C364,86.5,364,86.5,364.1,86.5z"/>
	<path class="st5" d="M337.6,92.8c-1.4,0-2.6-0.4-3.7-1.2c-0.4-0.3-0.6-0.6-0.2-1c0.1-0.1,0.1-0.2,0.2-0.3c0.7-1.1,0.7-1.1,1.9-0.5
		c0.7,0.3,1.4,0.6,2.2,0.5c0.3,0,0.7-0.1,0.7-0.5c0.1-0.4-0.3-0.5-0.6-0.6c-0.8-0.2-1.6-0.3-2.3-0.5c-1.5-0.5-2.2-1.5-2.2-2.9
		c0.1-1.4,0.9-2.3,2.5-2.6c1.6-0.3,3.1-0.1,4.4,0.8c0.4,0.3,0.6,0.6,0.2,1c-0.1,0.1-0.1,0.1-0.1,0.2c-0.7,1.1-0.7,1.1-2,0.6
		c-0.6-0.3-1.3-0.4-1.9-0.3c-0.2,0-0.5,0.1-0.5,0.4c0,0.3,0.2,0.4,0.4,0.5c0.9,0.2,1.7,0.4,2.6,0.7c1.7,0.6,2.5,2,2,3.7
		c-0.4,1.2-1.3,1.7-2.4,1.9C338.4,92.8,338,92.8,337.6,92.8z"/>
	<path class="st5" d="M391.4,92.8c-1.3,0-2.5-0.4-3.6-1.1c-0.4-0.3-0.6-0.6-0.2-1c0,0,0.1-0.1,0.1-0.1c0.8-1.2,0.8-1.2,2.1-0.6
		c0.7,0.3,1.3,0.5,2.1,0.4c0.4,0,0.7-0.1,0.8-0.5c0-0.4-0.4-0.4-0.7-0.5c-0.8-0.2-1.5-0.3-2.3-0.5c-1.5-0.5-2.3-1.5-2.2-2.9
		c0.1-1.4,1-2.4,2.5-2.7c1.6-0.3,3.1-0.1,4.4,0.9c0.4,0.3,0.6,0.5,0.2,1c-0.1,0.2-0.3,0.3-0.3,0.5c-0.4,0.8-0.8,0.9-1.6,0.4
		c-0.5-0.3-1.2-0.4-1.8-0.4c-0.3,0-0.7,0-0.8,0.4c-0.1,0.4,0.3,0.5,0.6,0.6c0.8,0.2,1.6,0.4,2.4,0.6c1.7,0.6,2.5,2.1,2,3.7
		c-0.4,1.2-1.3,1.7-2.4,1.9C392.2,92.8,391.8,92.8,391.4,92.8z"/>
	<path class="st6" d="M356.6,90.3c-0.6,0-1.3,0-1.9,0c-0.4,0-0.6-0.2-0.6-0.6c0-0.4,0.2-0.5,0.6-0.5c0.9,0,1.8,0,2.7,0
		c0.6,0,0.8-0.2,0.8-0.8c0-1.9,0.2-1.6-1.6-1.6c-0.6,0-1.3,0-1.9,0c-0.4,0-0.6-0.1-0.6-0.6c0-0.4,0.2-0.6,0.6-0.6c1.2,0,2.5,0,3.7,0
		c0.2,0,0.4,0.1,0.5,0.2c0.6,0.6,1.2,1.2,1.8,1.8c0.3,0.3,0.3,0.4,0,0.7c-0.6,0.6-1.2,1.2-1.8,1.7c-0.2,0.2-0.4,0.3-0.7,0.3
		C357.7,90.2,357.1,90.3,356.6,90.3C356.6,90.3,356.6,90.3,356.6,90.3z"/>
	<path class="st7" d="M343.5,85.8c0,1.4,0,2.8,0,4.3c-0.1,0.1-0.1,0.1-0.2,0.2c-0.6-0.7-1.2-1.4-1.9-2c-0.2-0.2-0.1-0.4,0-0.6
		c0.6-0.6,1.2-1.3,1.9-2C343.4,85.7,343.4,85.8,343.5,85.8z"/>
	<path class="st5" d="M386.9,92c-0.5-0.6-0.9-1.2-1.4-1.8c-0.4-0.5-0.4-0.7,0.1-1.2c1-1,1.3-2.3,0.8-3.6c-0.5-1.3-1.4-2-2.8-2.1
		c-1.3-0.1-2.7,0-4-0.1c-0.5,0-0.7,0.2-0.7,0.7c0,1.3,0,2.6,0,3.9c0,1.4,0,2.7,0,4.1c0,0.3,0,0.6,0.5,0.7c1.8,0.3,2.1,0.1,2.1-1.7
		c0-0.1,0-0.2,0-0.3c0-0.2-0.1-0.6,0.3-0.6c0.3-0.1,0.6,0,0.8,0.2c0.2,0.2,0.4,0.5,0.6,0.8c0.7,1.5,1.9,2,3.4,1.7c0.1,0,0.1,0,0.2,0
		C387.2,92.7,387.2,92.4,386.9,92z M383.3,87.5c-0.2,0.1-0.5,0-0.6,0c-1.2,0-1.7-0.8-1.3-1.7c0.1-0.1,0.2-0.2,0.3-0.2
		c0.5,0,1.1-0.1,1.6,0.1c0.5,0.2,0.6,0.5,0.6,1C384,87.1,383.7,87.4,383.3,87.5z"/>
</g>
</svg>
